<svg width="402" height="316" viewBox="0 0 402 316" fill="none" xmlns="http://www.w3.org/2000/svg">
<path d="M0.916027 313.883C0.256467 313.088 -0.13613 311.4 0.0435901 310.133C0.28527 308.428 1.02124 307.828 2.87035 307.828C4.98146 307.828 5.37035 308.294 5.37035 310.828C5.37035 313.276 5.73812 313.764 7.37035 313.483C10.1313 313.006 11.427 311.782 13.2626 307.913C14.712 304.859 20.8703 281.847 20.8703 279.486C20.8703 278.922 19.6328 278.273 18.1203 278.044C15.4994 277.647 15.5192 277.62 18.5428 277.477C21.2323 277.35 21.8919 276.792 22.8759 273.811C23.5143 271.876 25.5149 268.726 27.3216 266.811C31.5608 262.316 36.8963 261.911 39.5016 265.888C41.0289 268.219 41.0379 268.589 39.6022 270.024C37.0505 272.576 34.5772 270.939 35.3905 267.236C35.9616 264.636 35.7919 264.197 34.3261 264.485C31.8821 264.965 29.0929 269.156 28.3252 273.502C27.7137 276.964 27.8405 277.201 30.5233 277.602L33.3703 278.028L30.2772 278.178C27.2773 278.323 27.1168 278.576 24.9481 286.578C20.1728 304.197 12.5525 315.328 5.26495 315.328C3.53261 315.328 1.5756 314.677 0.916027 313.883ZM169.916 313.883C168.028 311.607 169.025 307.877 171.62 307.508C173.526 307.237 173.87 307.649 173.87 310.199C173.87 313.792 174.61 314.38 177.671 313.224C180.717 312.073 183.155 306.321 186.849 291.573C188.511 284.939 189.87 279.275 189.87 278.986C189.87 278.697 188.633 278.273 187.12 278.044C184.452 277.64 184.463 277.623 187.484 277.477C190.202 277.347 190.816 276.759 192.306 272.856C194.47 267.19 198.937 263.328 203.325 263.328C207.164 263.328 209.16 265.258 208.697 268.523C208.48 270.052 207.697 270.828 206.37 270.828C204.729 270.828 204.416 270.246 204.624 267.578C204.835 264.884 204.527 264.328 202.825 264.328C201.38 264.328 200.202 265.584 198.843 268.578C196.22 274.358 196.303 277.079 199.12 277.622C201.076 277.999 201.016 278.073 198.659 278.191C196.345 278.308 195.787 278.951 194.854 282.578C190.549 299.319 185.271 309.892 179.446 313.444C175.773 315.685 171.572 315.878 169.916 313.883ZM34.3249 303.873C25.4656 295.014 43.0087 270.946 53.3748 277.739C58.6324 281.183 55.4291 285.777 44.6352 290.271C38.4382 292.851 38.367 292.926 38.0592 297.177C37.4634 305.409 43.0431 306.974 49.4512 300.371C53.8061 295.884 55.1167 295.769 51.9991 300.147C47.6379 306.271 38.6238 308.172 34.3249 303.873ZM45.9579 288.048C51.7526 284.143 53.2245 278.328 48.4184 278.328C45.915 278.328 43.894 280.282 41.4909 285.028C38.5187 290.898 40.1213 291.981 45.9579 288.048ZM77.1935 304.727C76.5179 302.967 77.4649 298.609 80.9376 287.497C83.5558 279.12 82.835 277.521 77.4314 279.724C73.0765 281.498 69.0818 287.748 66.4437 296.914C64.3942 304.035 63.9011 304.859 61.5183 305.144C60.0619 305.318 58.8744 305.093 58.8793 304.644C58.8843 304.195 61.358 295.278 64.3766 284.828C67.3952 274.378 69.8662 265.715 69.8677 265.578C69.8687 265.44 68.6328 265.296 67.1203 265.257C64.6835 265.195 64.5981 265.089 66.3703 264.328C68.8728 263.252 75.8704 263.068 75.8702 264.078C75.8701 264.49 74.7519 268.428 73.3852 272.828C72.0185 277.228 70.8936 281.188 70.8854 281.629C70.8774 282.069 72.3753 281.282 74.2147 279.879C76.5663 278.085 78.7991 277.328 81.7362 277.328C88.2552 277.328 88.7728 279.666 84.9566 291.875C83.2591 297.305 81.8703 302.104 81.8703 302.538C81.8703 304.536 85.0258 302.99 87.4589 299.8C88.9386 297.86 90.3606 296.485 90.6189 296.743C91.1918 297.316 87.0339 303.36 84.9071 305.046C82.6671 306.821 77.9219 306.626 77.1935 304.727ZM131.838 304.788C130.784 303.519 131.048 301.723 133.346 294.538C136.932 283.325 137.439 280.297 135.889 279.339C131.597 276.686 124.979 284.402 121.229 296.431C118.575 304.943 118.33 305.328 115.556 305.328C113.267 305.328 112.79 304.979 113.292 303.67C115.02 299.167 118.87 284.128 118.87 281.882C118.87 279.863 118.375 279.328 116.505 279.328C111.29 279.328 105.621 287.23 102.339 299.078C100.738 304.854 100.393 305.328 97.7925 305.328H94.9781L96.4994 300.078C97.8718 295.341 101.118 284.458 102.444 280.148C102.825 278.908 102.231 278.359 100.165 278.048C98.6281 277.817 99.7891 277.56 102.745 277.478L108.12 277.328L107.501 280.427L106.881 283.526L110.301 280.522C116.426 275.145 123.478 275.116 124.548 280.465L125.143 283.441L127.785 280.909C131.498 277.352 135.85 275.989 139.302 277.302C141.842 278.267 142.033 278.702 141.618 282.591C141.37 284.921 140.13 290.094 138.861 294.087C137.593 298.079 136.817 301.608 137.137 301.928C138.266 303.057 141.566 301.265 142.879 298.811C143.61 297.445 144.582 296.328 145.039 296.328C146.777 296.328 145.736 298.385 142.025 302.286C137.91 306.612 134.123 307.542 131.838 304.788ZM151.537 305.661C150.31 304.434 150.872 300.897 153.882 290.915C155.525 285.463 156.87 280.43 156.87 279.731C156.87 279.032 155.633 278.273 154.12 278.044C152.608 277.815 153.988 277.56 157.188 277.478C162.293 277.346 162.943 277.542 162.495 279.078C159.027 290.977 155.87 302.247 155.87 302.727C155.87 304.265 158.59 303.029 161.698 300.078C164.175 297.726 164.816 297.42 164.018 298.97C161.453 303.952 153.885 308.009 151.537 305.661ZM202.87 304.328C198.315 299.773 201.346 288.786 209.13 281.64C214.896 276.345 220.36 274.979 222.955 278.184C224.997 280.706 225.87 280.898 225.87 278.828C225.87 277.894 226.815 277.328 228.37 277.328C229.745 277.328 230.87 277.823 230.87 278.428C230.87 279.034 229.495 284.25 227.814 290.019C223.95 303.287 224.213 305.189 229.178 299.882C231.209 297.712 232.87 296.456 232.87 297.09C232.87 297.724 231.108 300.096 228.954 302.36C225.86 305.613 224.443 306.409 222.204 306.152C219.943 305.893 219.306 305.263 219.05 303.036L218.729 300.244L215.265 303.286C211.087 306.955 205.931 307.388 202.87 304.328ZM216.427 300.836C219.839 297.219 223.87 288.03 223.87 283.872C223.87 279.586 222.836 278.328 219.314 278.328C214.966 278.328 211.581 282.64 208.286 292.378C205.524 300.542 205.419 301.476 207.07 303.128C209.3 305.358 213.023 304.446 216.427 300.836ZM275.37 304.273C270.774 302.098 266.795 301.803 265.087 303.511C264.436 304.162 263.669 304.46 263.382 304.173C263.095 303.886 268.037 299.007 274.365 293.332C280.693 287.657 285.87 282.859 285.87 282.671C285.87 282.482 282.486 282.328 278.349 282.328C271.296 282.328 270.756 282.484 269.688 284.828C269.062 286.203 268.164 287.328 267.693 287.328C267.222 287.328 267.977 285.078 269.37 282.328L271.904 277.328L282.637 277.362L293.37 277.395L282.91 287.227C273.023 296.52 272.584 297.099 274.91 297.795C276.263 298.199 279.031 299.835 281.062 301.429C286.276 305.524 288.147 305.317 287.288 300.741C286.66 297.39 286.771 297.177 288.983 297.491C292.184 297.946 292.561 300.963 289.787 303.917C286.98 306.905 281.232 307.047 275.37 304.273ZM298.87 304.328C294.315 299.773 297.346 288.786 305.13 281.64C310.896 276.345 316.36 274.979 318.955 278.184C320.997 280.705 321.87 280.898 321.87 278.828C321.87 277.894 322.815 277.328 324.37 277.328C325.745 277.328 326.87 277.713 326.87 278.185C326.87 278.656 325.491 283.852 323.806 289.731C319.916 303.301 320.168 305.198 325.15 299.828C327.191 297.628 328.863 296.336 328.866 296.957C328.869 297.578 327.044 299.968 324.812 302.268C321.697 305.478 320.129 306.377 318.062 306.138C315.953 305.895 315.301 305.224 315.05 303.036L314.729 300.244L311.265 303.286C307.087 306.955 301.931 307.388 298.87 304.328ZM311.693 301.351C317.734 295.31 321.834 282.202 318.538 279.467C315.522 276.964 311.588 278.503 308.256 283.488C304.158 289.619 301.069 300.658 302.851 302.804C304.833 305.193 308.444 304.6 311.693 301.351ZM352.5 304.814C350.91 303.224 351.405 300.549 355.458 288.828C356.219 286.628 356.848 283.365 356.856 281.578C356.877 276.891 353.656 277.272 348.386 282.578C344.307 286.685 342.679 290.228 339.887 301.078C338.973 304.63 338.389 305.328 336.332 305.328C334.978 305.328 333.87 304.908 333.87 304.395C333.87 303.882 335.445 297.939 337.37 291.187C339.295 284.435 340.87 278.809 340.87 278.686C340.87 278.562 339.633 278.273 338.12 278.044C336.608 277.815 337.789 277.56 340.745 277.477L346.12 277.328L345.48 280.529L344.84 283.731L347.605 281.093C351.103 277.756 355.308 276.148 358.466 276.941C362.922 278.059 363.163 280.39 359.881 290.635C358.225 295.805 356.87 300.808 356.87 301.754C356.87 304.62 360.16 303.124 362.787 299.065C364.117 297.01 365.388 295.512 365.611 295.735C366.416 296.54 362.854 302.195 360.255 304.239C357.115 306.709 354.583 306.897 352.5 304.814ZM371.846 303.578C366.322 296.578 374.808 280.524 385.768 277.24C390.141 275.93 393.824 277.225 393.938 280.113C393.99 281.441 394.251 281.32 395.091 279.578C395.772 278.165 397.075 277.328 398.591 277.328C400.592 277.328 400.891 277.689 400.335 279.438C396.764 290.69 394.049 301.907 394.732 302.59C395.195 303.052 396.99 301.817 398.722 299.844C400.453 297.872 401.87 296.777 401.87 297.41C401.87 298.044 400.089 300.344 397.913 302.52C393.118 307.316 389.669 307.469 388.877 302.921C388.411 300.249 388.255 300.154 386.943 301.737C382.717 306.837 375.146 307.76 371.846 303.578ZM385.923 300.393C390.207 295.89 393.141 288.179 392.684 282.629C392.402 279.215 392.063 278.797 389.352 278.532C387.084 278.309 385.632 278.967 383.516 281.176C378.941 285.951 374.177 301.301 376.537 303.661C378.367 305.491 382.414 304.082 385.923 300.393ZM237.87 304.612C237.87 304.146 239.445 298.294 241.37 291.607C243.295 284.921 244.87 279.227 244.87 278.955C244.87 278.683 243.633 278.273 242.12 278.044C240.608 277.815 241.926 277.56 245.051 277.477L250.731 277.328L249.87 280.328C249.397 281.978 249.169 283.328 249.363 283.328C249.558 283.328 251.043 282.001 252.665 280.379C257.91 275.134 264.028 275.203 264.671 280.514C265.022 283.415 262.611 285.826 260.261 284.924C259.046 284.458 258.78 283.531 259.223 281.312C259.552 279.671 259.418 278.328 258.927 278.328C254.645 278.328 248.876 286.328 245.587 296.828C243.365 303.922 242.786 304.863 240.476 305.144C239.043 305.318 237.87 305.079 237.87 304.612ZM160.259 268.898C159.263 266.303 160.659 264.159 163.116 264.508C164.769 264.742 165.37 265.495 165.37 267.328C165.37 269.16 164.769 269.913 163.116 270.148C161.764 270.34 160.62 269.84 160.259 268.898ZM190.32 216.936C186.442 216.193 180.592 214.819 177.32 213.881C170.095 211.812 152.502 203.306 148.37 199.884L145.37 197.4L149.537 197.364C152.543 197.338 156.584 198.721 164.037 202.326C181.115 210.587 197.665 213.636 217.37 212.148C235.303 210.795 253.286 203.926 268.37 192.667C318.985 154.889 324.653 80.8284 280.394 35.5776C275.696 30.7748 272.533 28.3276 271.024 28.3276C266.869 28.3276 258.102 33.3236 252.085 39.1212C240.424 50.3555 227.655 74.1274 220.412 98.0875L219.729 100.347L245.55 99.6839C268.852 99.0851 271.504 99.1817 272.743 100.674C273.844 102 273.869 102.625 272.87 103.828C271.82 105.093 267.428 105.328 244.83 105.328H218.035L215.307 113.578C211.597 124.801 202.774 144.915 197.73 153.647C187.709 170.996 176.999 182.457 165.87 187.741C159.661 190.69 158.859 190.818 147.94 190.612L136.509 190.397L131.622 185.612C118.579 172.844 109.21 155.998 103.655 135.328C101.675 127.961 101.37 124.427 101.37 108.828C101.37 93.0011 101.66 89.7409 103.768 81.8276C114.607 41.1451 145.638 10.9183 186.085 1.6446C191.25 0.460333 197.882 -0.018172 208.87 0.000525994C222.308 0.023396 225.662 0.370383 234.076 2.60844C244.212 5.30441 256.853 10.7694 265.37 16.1381L270.37 19.2896L265.561 19.3086C261.985 19.3227 258.652 18.3157 252.561 15.3804C238.7 8.70049 228.445 6.20746 212.32 5.59717C197.276 5.02778 187.836 6.29185 175.418 10.5386C139.98 22.6575 113.536 54.6132 107.342 92.8049C102.03 125.555 113.324 159.748 137.193 183.184C142.388 188.285 142.836 188.509 146.569 187.879C155.878 186.306 167.864 176.198 177.243 162.009C185.636 149.312 190.901 137.941 198.394 116.328L201.687 106.828L186.381 106.553C174.359 106.337 170.811 105.961 169.85 104.803C168.883 103.638 168.887 103.012 169.87 101.828C170.882 100.609 174.138 100.325 187.243 100.315L203.37 100.303L207.234 89.5654C214.268 70.0161 224.895 50.8914 233.885 41.6018C247.408 27.6289 257.783 23.2856 272.434 25.4648C279.772 26.5561 279.963 26.6605 285.434 32.5693C305.529 54.2745 315.87 80.1849 315.87 108.828C315.87 159.673 282.571 202.483 232.901 215.494C223.044 218.076 200.296 218.847 190.32 216.936Z" fill="white"/>
</svg>
