<?xml version="1.0" encoding="UTF-8" standalone="no"?>
<!-- Created with Inkscape (http://www.inkscape.org/) -->

<svg
   version="1.1"
   id="svg1"
   width="547"
   height="456"
   viewBox="0 0 547 456"
   sodipodi:docname="logo-fehmifarz-noBg.svg"
   inkscape:version="1.4.2 (f4327f4, 2025-05-13)"
   xmlns:inkscape="http://www.inkscape.org/namespaces/inkscape"
   xmlns:sodipodi="http://sodipodi.sourceforge.net/DTD/sodipodi-0.dtd"
   xmlns="http://www.w3.org/2000/svg"
   xmlns:svg="http://www.w3.org/2000/svg">
  <defs
     id="defs1" />
  <sodipodi:namedview
     id="namedview1"
     pagecolor="#ffffff"
     bordercolor="#000000"
     borderopacity="0.25"
     inkscape:showpageshadow="2"
     inkscape:pageopacity="0.0"
     inkscape:pagecheckerboard="0"
     inkscape:deskcolor="#d1d1d1"
     inkscape:zoom="1.7872807"
     inkscape:cx="273.32025"
     inkscape:cy="196.66748"
     inkscape:window-width="1920"
     inkscape:window-height="1017"
     inkscape:window-x="-8"
     inkscape:window-y="-8"
     inkscape:window-maximized="1"
     inkscape:current-layer="g1" />
  <g
     inkscape:groupmode="layer"
     inkscape:label="Image"
     id="g1">
    <path
       style="fill:#000000"
       d="m 86.033411,364.23357 c -0.65956,-0.79473 -1.05216,-2.48223 -0.87244,-3.75 0.24168,-1.70491 0.97765,-2.30504 2.82676,-2.30504 2.11111,0 2.5,0.46666 2.5,3 0,2.44834 0.36777,2.93655 2,2.65497 2.76096,-0.47629 4.05667,-1.70095 5.89225,-5.56916 1.4494,-3.05437 7.607749,-26.06619 7.607749,-28.42774 0,-0.56388 -1.2375,-1.21269 -2.75,-1.44182 -2.62094,-0.39704 -2.60111,-0.42362 0.42245,-0.56642 2.68947,-0.12702 3.34915,-0.68526 4.33315,-3.6668 0.63838,-1.93433 2.63892,-5.08433 4.44563,-7 4.23927,-4.49493 9.57471,-4.89928 12.18003,-0.92306 1.52728,2.33093 1.53628,2.70106 0.10059,4.13675 -2.55174,2.55174 -5.02496,0.9143 -4.21171,-2.78844 0.57109,-2.60014 0.40138,-3.03875 -1.06438,-2.75082 -2.44399,0.48008 -5.23324,4.67112 -6.00087,9.01675 -0.61157,3.46214 -0.48471,3.69879 2.19804,4.10016 l 2.84707,0.42596 -3.09311,0.14983 c -2.99999,0.14533 -3.16044,0.39823 -5.32909,8.39984 -4.77536,17.61957 -12.395619,28.75 -19.683199,28.75 -1.73234,0 -3.68935,-0.65023 -4.34892,-1.44496 z m 168.999999,0 c -1.88844,-2.27544 -0.89104,-6.006 1.70432,-6.37459 1.90585,-0.27068 2.25,0.14093 2.25,2.69098 0,3.59279 0.73918,4.18115 3.80019,3.02481 3.04634,-1.1508 5.48482,-6.90279 9.1788,-21.65131 1.66156,-6.6339 3.02101,-12.29799 3.02101,-12.58686 0,-0.28888 -1.2375,-0.71269 -2.75,-0.94182 -2.66861,-0.40426 -2.65783,-0.42102 0.36414,-0.56642 2.71794,-0.13077 3.33141,-0.71874 4.82185,-4.6214 2.16388,-5.66603 6.6302,-9.52843 11.01829,-9.52843 3.83892,0 5.83527,1.93038 5.37248,5.19495 -0.21681,1.52946 -0.99971,2.30505 -2.32676,2.30505 -1.64181,0 -1.95454,-0.58207 -1.74619,-3.25 0.21035,-2.69358 -0.0976,-3.25 -1.7989,-3.25 -1.44566,0 -2.62319,1.25683 -3.98184,4.25 -2.62382,5.7804 -2.5405,8.5016 0.27693,9.04426 1.9561,0.37676 1.89582,0.45116 -0.46146,0.56955 -2.31366,0.11621 -2.8718,0.7597 -3.80442,4.38619 -4.3054,16.74159 -9.5834,27.31485 -15.40822,30.86684 -3.6734,2.24003 -7.87451,2.4332 -9.53022,0.4382 z M 119.44228,354.22398 c -8.85926,-8.85925 8.68382,-32.92661 19.04986,-26.13452 5.25763,3.44493 2.05432,8.03835 -8.73959,12.53223 -6.19695,2.58 -6.26819,2.65482 -6.57593,6.90645 -0.59586,8.23221 4.98389,9.79664 11.39193,3.19402 4.35494,-4.48719 5.66549,-4.60266 2.54797,-0.2245 -4.36119,6.12472 -13.37536,8.02521 -17.67424,3.72632 z m 11.633,-15.82547 c 5.79469,-3.90504 7.26664,-9.71998 2.46045,-9.71998 -2.50335,0 -4.52433,1.95473 -6.92741,6.70034 -2.97224,5.86957 -1.36963,6.95292 4.46696,3.01964 z m 31.23556,16.67964 c -0.67552,-1.76037 0.27147,-6.11831 3.7441,-17.22995 2.61823,-8.37773 1.89743,-9.97587 -3.50613,-7.77374 -4.35496,1.77478 -8.34966,8.0246 -10.98768,17.19052 -2.04955,7.12126 -2.54268,7.94523 -4.92549,8.22997 -1.45635,0.17403 -2.64387,-0.051 -2.63894,-0.5 0.005,-0.44903 2.47874,-9.36642 5.49734,-19.81642 3.0186,-10.45 5.48957,-19.1125 5.49103,-19.25 0.001,-0.1375 -1.23484,-0.28163 -2.74734,-0.32029 -2.43684,-0.0623 -2.52225,-0.16815 -0.75,-0.92971 2.50248,-1.07535 9.50005,-1.2595 9.49986,-0.25 -7e-5,0.4125 -1.11832,4.35 -2.48499,8.75 -1.36667,4.4 -2.49161,8.3604 -2.49986,8.80089 -0.008,0.44049 1.48997,-0.34701 3.32938,-1.75 2.35156,-1.79362 4.58441,-2.55089 7.52144,-2.55089 6.519,0 7.03666,2.33834 3.22039,14.54718 -1.69742,5.43032 -3.08622,10.22869 -3.08622,10.66306 0,1.99814 3.15546,0.45249 5.58856,-2.73746 1.47969,-1.93997 2.90168,-3.31588 3.15998,-3.05758 0.5729,0.57291 -3.58494,6.61695 -5.71182,8.30299 -2.23994,1.77566 -6.98518,1.57969 -7.71361,-0.31857 z m 54.64426,0.0611 c -1.05377,-1.26971 -0.78963,-3.06496 1.5081,-10.25 3.58592,-11.21322 4.09271,-14.24149 2.54359,-15.1989 -4.29264,-2.653 -10.91078,5.0624 -14.66042,17.09104 -2.6537,8.51292 -2.89871,8.89718 -5.67305,8.89718 -2.28902,0 -2.76564,-0.34902 -2.26352,-1.65752 1.72788,-4.50278 5.57793,-19.54172 5.57793,-21.78832 0,-2.01894 -0.49562,-2.55416 -2.36514,-2.55416 -5.21537,0 -10.88402,7.90276 -14.16666,19.75 -1.60039,5.77592 -1.94522,6.25 -4.54608,6.25 h -2.81432 l 1.52124,-5.25 c 1.37245,-4.73655 4.61862,-15.61993 5.94425,-19.92925 0.38171,-1.24083 -0.21311,-1.78913 -2.27836,-2.10016 -1.53721,-0.23151 -0.37618,-0.48835 2.58007,-0.57076 l 5.375,-0.14983 -0.61981,3.09903 -0.6198,3.09903 3.42052,-3.00326 c 6.12452,-5.3774 13.17684,-5.40604 14.24648,-0.0579 l 0.59521,2.97608 2.64208,-2.53127 c 3.71277,-3.55706 8.06457,-4.92033 11.51678,-3.6078 2.54025,0.9658 2.73074,1.40071 2.31665,5.28919 -0.24816,2.33028 -1.48893,7.50344 -2.75727,11.49591 -1.26835,3.99248 -2.04406,7.52107 -1.72382,7.84131 1.12854,1.12854 4.42844,-0.66279 5.74185,-3.11692 0.731,-1.36589 1.70305,-2.48343 2.16011,-2.48343 1.7374,0 0.69681,2.05686 -3.01414,5.95789 -4.11546,4.32624 -7.90208,5.25652 -10.18747,2.50279 z m 19.6993,0.87265 c -1.22721,-1.2272 -0.6649,-4.76356 2.34473,-14.74615 1.64373,-5.45204 2.9886,-10.48465 2.9886,-11.18357 0,-0.69893 -1.2375,-1.45823 -2.75,-1.68736 -1.5125,-0.22912 -0.13218,-0.48401 3.06739,-0.56642 5.10516,-0.13149 5.75495,0.0644 5.3074,1.60017 -3.46783,11.89966 -6.62479,23.16941 -6.62479,23.64922 0,1.5381 2.71972,0.30176 5.82782,-2.64922 2.47699,-2.35178 3.11823,-2.65796 2.32015,-1.10787 -2.56529,4.98256 -10.13294,9.03956 -12.4813,6.6912 z m 51.33333,-1.33333 c -4.55502,-4.55503 -1.52395,-15.54167 6.25928,-22.68785 5.76662,-5.29462 11.23047,-6.66051 13.82522,-3.45613 2.04206,2.52184 2.9155,2.71476 2.9155,0.64398 0,-0.93334 0.94444,-1.5 2.5,-1.5 1.375,0 2.5,0.49535 2.5,1.10077 0,0.60543 -1.37512,5.82132 -3.05583,11.59087 -3.86488,13.26744 -3.60194,15.16918 1.36368,9.86294 2.03068,-2.16998 3.69215,-3.42643 3.69215,-2.79211 0,0.63432 -1.76222,3.0058 -3.91606,5.26994 -3.09402,3.25249 -4.51094,4.04851 -6.75,3.79211 -2.26121,-0.25894 -2.8987,-0.88872 -3.15439,-3.11626 l -0.32045,-2.79174 -3.46435,3.04174 c -4.17831,3.66861 -9.33452,4.10197 -12.39475,1.04174 z m 13.55699,-3.49175 c 3.41124,-3.61698 7.44301,-12.8061 7.44301,-16.96398 0,-4.28572 -1.03424,-5.54427 -4.5561,-5.54427 -4.34862,0 -7.73319,4.31217 -11.02779,14.05016 -2.76207,8.164 -2.86776,9.09819 -1.21611,10.74984 2.23001,2.23 5.95223,1.31835 9.35699,-2.29175 z m 58.94301,3.43702 c -4.59607,-2.17489 -8.57552,-2.46975 -10.28333,-0.76194 -0.65084,0.65083 -1.41814,0.94853 -1.70511,0.66156 -0.28698,-0.28698 4.65552,-5.16512 10.98333,-10.84031 6.32781,-5.67519 11.50511,-10.47289 11.50511,-10.66156 0,-0.18866 -3.38465,-0.34302 -7.52144,-0.34302 -7.05245,0 -7.59246,0.15588 -8.66051,2.5 -0.6265,1.375 -1.52443,2.5 -1.99541,2.5 -0.47098,0 0.28383,-2.25 1.67736,-5 l 2.53369,-5 10.73316,0.0339 10.73315,0.0339 -10.46063,9.83182 c -9.88683,9.2925 -10.32566,9.87217 -8,10.56743 1.35335,0.40458 4.12174,2.03999 6.15199,3.63424 5.2146,4.09474 7.08491,3.88819 6.22648,-0.68763 -0.62867,-3.35109 -0.51755,-3.5642 1.69447,-3.25 3.2009,0.45467 3.57841,3.47212 0.80388,6.42547 -2.807,2.98791 -8.55448,3.12987 -14.41619,0.35606 z m 23.5,0.0547 c -4.55502,-4.55503 -1.52395,-15.54167 6.25928,-22.68785 5.76662,-5.29462 11.23047,-6.66051 13.82522,-3.45613 2.04206,2.52184 2.9155,2.71476 2.9155,0.64398 0,-0.93334 0.94444,-1.5 2.5,-1.5 1.375,0 2.5,0.3857 2.5,0.85711 0,0.47142 -1.37895,5.66743 -3.06433,11.5467 -3.89005,13.57 -3.63753,15.46662 1.34425,10.09619 2.04079,-2.2 3.71268,-3.49177 3.7153,-2.87059 0.003,0.62118 -1.82129,3.01106 -4.05314,5.31084 -3.11535,3.21014 -4.68325,4.10921 -6.75,3.87058 -2.10954,-0.24357 -2.76142,-0.91494 -3.01253,-3.10257 l -0.32045,-2.79174 -3.46435,3.04174 c -4.17831,3.66861 -9.33452,4.10197 -12.39475,1.04174 z m 12.82235,-2.97619 c 6.0415,-6.04151 10.14131,-19.14923 6.84509,-21.88485 -3.01571,-2.50282 -6.95023,-0.96397 -10.28216,4.02151 -4.09759,6.13111 -7.18627,17.16946 -5.40487,19.31593 1.98265,2.38893 5.59363,1.79571 8.84194,-1.45259 z m 40.80699,3.46267 c -1.59018,-1.59019 -1.09519,-4.26514 2.95828,-15.98648 0.7608,-2.2 1.38982,-5.4625 1.39783,-7.25 0.021,-4.68624 -3.19983,-4.30596 -8.46968,1 -4.07951,4.10746 -5.70698,7.64996 -8.49915,18.5 -0.91426,3.55269 -1.49756,4.25 -3.55516,4.25 -1.3538,0 -2.46146,-0.41957 -2.46146,-0.93236 0,-0.5128 1.575,-6.45663 3.5,-13.2085 1.925,-6.75188 3.5,-12.37743 3.5,-12.50122 0,-0.12379 -1.2375,-0.41254 -2.75,-0.64167 -1.5125,-0.22912 -0.33125,-0.48401 2.625,-0.56642 l 5.375,-0.14983 -0.64036,3.2018 -0.64036,3.20181 2.76536,-2.63819 c 3.49805,-3.33718 7.70301,-4.94467 10.86114,-4.15203 4.45615,1.11842 4.69695,3.44886 1.415,13.69443 -1.65593,5.16947 -3.01078,10.17298 -3.01078,11.11893 0,2.86525 3.28986,1.36965 5.91685,-2.68985 1.32965,-2.05471 2.60049,-3.5529 2.82408,-3.3293 0.80467,0.80466 -2.75688,6.45978 -5.35581,8.5041 -3.1402,2.47008 -5.67279,2.65777 -7.75578,0.57478 z m 19.34587,-1.23648 c -5.52357,-7.00006 2.96272,-23.05387 13.92239,-26.33747 4.37256,-1.31005 8.05612,-0.0149 8.17008,2.87265 0.0524,1.32782 0.31257,1.20705 1.15281,-0.53518 0.68123,-1.4125 1.9839,-2.25 3.49971,-2.25 2.00141,0 2.29999,0.36102 1.74493,2.10986 -3.57137,11.25241 -6.28601,22.46925 -5.60315,23.15212 0.46238,0.46238 2.25759,-0.77307 3.98936,-2.74544 1.73176,-1.97238 3.14866,-3.06754 3.14866,-2.43369 0,0.63384 -1.78086,2.9333 -3.95748,5.10992 -4.7953,4.7953 -8.2437,4.9483 -9.03609,0.40089 -0.46556,-2.67181 -0.6216,-2.76735 -1.9336,-1.18406 -4.22618,5.10005 -11.79726,6.02297 -15.09762,1.8404 z m 14.07763,-3.18489 c 4.28348,-4.50288 7.21818,-12.21409 6.76057,-17.76406 -0.28149,-3.41398 -0.62082,-3.83121 -3.33214,-4.09716 -2.26746,-0.22242 -3.7198,0.43564 -5.8357,2.64417 -4.5752,4.77547 -9.33929,20.12488 -6.9789,22.48527 1.83002,1.83002 5.87671,0.42099 9.38617,-3.26822 z m -148.05284,4.21972 c 0,-0.46641 1.575,-6.31877 3.5,-13.00524 1.925,-6.68647 3.5,-12.37987 3.5,-12.65199 0,-0.27212 -1.2375,-0.68222 -2.75,-0.91135 -1.5125,-0.22912 -0.19391,-0.48401 2.93019,-0.56642 l 5.6802,-0.14983 -0.86039,3 c -0.47321,1.65 -0.70142,3 -0.50712,3 0.1943,0 1.68023,-1.32696 3.30206,-2.94879 5.2447,-5.2447 11.36319,-5.17578 12.00562,0.13524 0.35094,2.90123 -2.05956,5.31187 -4.40974,4.41002 -1.21499,-0.46623 -1.48141,-1.39351 -1.03774,-3.61187 0.32831,-1.64153 0.19497,-2.9846 -0.29629,-2.9846 -4.28205,0 -10.05087,8.0002 -13.34007,18.5 -2.22253,7.09474 -2.80092,8.0358 -5.11141,8.31642 -1.43292,0.17403 -2.60531,-0.0652 -2.60531,-0.53159 z m -77.61146,-35.7147 c -0.99567,-2.59467 0.39988,-4.73918 2.85699,-4.39027 1.65273,0.23469 2.25447,0.98741 2.25447,2.82014 0,1.83272 -0.60174,2.58544 -2.25447,2.82013 -1.35228,0.19203 -2.49559,-0.3082 -2.85699,-1.25 z m 30.06106,-51.96179 c -3.87771,-0.7427 -9.72771,-2.11723 -13,-3.05449 -7.22528,-2.0695 -24.81814,-10.57581 -28.9496,-13.99739 l -3,-2.48454 4.16698,-0.036 c 3.00576,-0.0259 7.04652,1.35703 14.5,4.96271 17.07719,8.26122 33.62782,11.30927 53.33302,9.82208 17.93273,-1.35342 35.91516,-8.2226 51,-19.48171 50.61458,-37.77799 56.28297,-111.83824 12.02321,-157.089044 -4.69765,-4.80284 -7.8601,-7.249999 -9.36914,-7.249999 -4.1555,0 -12.92217,4.996019 -18.9398,10.793569 -11.66077,11.234304 -24.42924,35.006254 -31.67217,58.966304 l -0.68314,2.25988 25.8206,-0.66347 c 23.30238,-0.59877 25.95444,-0.50221 27.19297,0.99012 1.10069,1.32625 1.12592,1.95054 0.12747,3.1536 -1.04989,1.26504 -5.44211,1.5 -28.04032,1.5 h -26.79544 l -2.72725,8.25 c -3.71008,11.22305 -12.53371,31.33734 -17.57752,40.06962 -10.02105,17.34927 -20.73034,28.8097 -31.85947,34.09404 -6.20919,2.94826 -7.0114,3.07669 -17.93066,2.8708 l -11.43066,-0.21553 -4.88729,-4.78447 c -13.04262,-12.76822 -22.41207,-29.61438 -27.96706,-50.28446 -1.97969,-7.36643 -2.28433,-10.90051 -2.28433,-26.5 0,-15.82653 0.28953,-19.08674 2.39782,-27 10.83883,-40.682494 41.86995,-70.909297 82.31661,-80.182994 5.16513,-1.18427 11.7968,-1.662774 22.78557,-1.644076 13.43769,0.02287 16.79138,0.369855 25.20581,2.607912 10.13607,2.695975 22.77652,8.16091 31.29419,13.529633 l 5,3.151522 -4.80904,0.019 c -3.57622,0.01413 -6.90885,-0.992894 -13,-3.92823 -13.86152,-6.679882 -24.11602,-9.172908 -40.24097,-9.783196 -15.04422,-0.569386 -24.48418,0.69468 -36.90258,4.941469 -35.43784,12.118883 -61.88142,44.07461 -68.07594,82.26631 -5.3119,32.75003 5.98189,66.94338 29.85154,90.37923 5.19492,5.10051 5.64313,5.32493 9.37562,4.69433 9.30949,-1.57283 21.29469,-11.68087 30.67401,-25.86977 8.39309,-12.69694 13.65782,-24.0676 21.15085,-45.68114 l 3.29348,-9.5 -15.30668,-0.27488 c -12.02205,-0.21589 -15.5694,-0.59142 -16.53093,-1.75 -0.9666,-1.16468 -0.96226,-1.7908 0.0206,-2.97512 1.01158,-1.21888 4.26748,-1.50229 17.37245,-1.5122 l 16.12755,-0.0122 3.86371,-10.7378 c 7.03429,-19.54929 17.66098,-38.67404 26.65103,-47.963574 13.52245,-13.972933 23.89794,-18.316185 38.5494,-16.137052 7.33764,1.091338 7.52865,1.19573 12.99913,7.104512 20.09521,21.705224 30.43673,47.615584 30.43673,76.258314 0,50.84554 -33.2993,93.6557 -82.9692,106.66662 -9.85756,2.58217 -32.60556,3.35237 -42.5812,1.44172 z"
       id="path1" />
  </g>
</svg>
