<svg width="402" height="53" viewBox="0 0 402 53" fill="none" xmlns="http://www.w3.org/2000/svg">
<path d="M0.916026 50.7297C0.256466 49.935 -0.13613 48.2475 0.0435902 46.9797C0.28527 45.2748 1.02124 44.6747 2.87035 44.6747C4.98146 44.6747 5.37035 45.1413 5.37035 47.6747C5.37035 50.123 5.73812 50.6112 7.37035 50.3296C10.1313 49.8533 11.427 48.6287 13.2626 44.7605C14.712 41.7061 20.8704 18.6943 20.8704 16.3327C20.8704 15.7689 19.6329 15.12 18.1204 14.8909C15.4994 14.4939 15.5192 14.4673 18.5428 14.3245C21.2323 14.1975 21.8919 13.6392 22.8759 10.6577C23.5143 8.72337 25.5149 5.57337 27.3216 3.6577C31.5608 -0.837233 36.8963 -1.24159 39.5016 2.73463C41.0289 5.06556 41.0379 5.43569 39.6022 6.87138C37.0505 9.42312 34.5772 7.7857 35.3905 4.08296C35.9616 1.48282 35.7919 1.04421 34.3261 1.33214C31.8821 1.81222 29.0929 6.00326 28.3252 10.3489C27.7137 13.811 27.8405 14.0477 30.5233 14.449L33.3704 14.875L30.2772 15.0248C27.2773 15.1702 27.1168 15.4231 24.9482 23.4247C20.1728 41.0442 12.5525 52.1747 5.26495 52.1747C3.53261 52.1747 1.5756 51.5244 0.916026 50.7297ZM169.916 50.7297C168.028 48.4543 169.025 44.7237 171.62 44.3551C173.526 44.0844 173.87 44.496 173.87 47.0461C173.87 50.6389 174.61 51.2272 177.671 50.0709C180.717 48.9201 183.155 43.1681 186.849 28.4196C188.511 21.7857 189.87 16.1216 189.87 15.8327C189.87 15.5439 188.633 15.12 187.12 14.8909C184.452 14.4867 184.463 14.4699 187.485 14.3245C190.202 14.1937 190.816 13.6058 192.306 9.70311C194.47 4.03708 198.937 0.174665 203.325 0.174665C207.164 0.174665 209.16 2.10504 208.697 5.36961C208.48 6.89907 207.697 7.67466 206.37 7.67466C204.729 7.67466 204.416 7.09259 204.624 4.42466C204.835 1.73108 204.527 1.17466 202.825 1.17466C201.38 1.17466 200.202 2.43149 198.843 5.42466C196.22 11.2051 196.303 13.9263 199.12 14.4689C201.076 14.8457 201.016 14.9201 198.659 15.0385C196.345 15.1547 195.787 15.7982 194.855 19.4247C190.549 36.1663 185.271 46.7395 179.446 50.2915C175.773 52.5315 171.572 52.7247 169.916 50.7297ZM34.3249 40.7201C25.4656 31.8609 43.0087 7.79349 53.3748 14.5856C58.6324 18.0305 55.4291 22.624 44.6352 27.1178C38.4382 29.6978 38.367 29.7726 38.0592 34.0243C37.4634 42.2565 43.0431 43.8209 49.4512 37.2183C53.8061 32.7311 55.1167 32.6156 51.9991 36.9938C47.6379 43.1185 38.6238 45.019 34.3249 40.7201ZM45.9579 24.8946C51.7526 20.9896 53.2245 15.1747 48.4184 15.1747C45.915 15.1747 43.894 17.1294 41.4909 21.875C38.5187 27.7446 40.1213 28.8279 45.9579 24.8946ZM77.1934 41.5743C76.5179 39.8139 77.4649 35.456 80.9375 24.3443C83.5558 15.9666 82.835 14.3685 77.4314 16.5706C73.0764 18.3454 69.0817 24.5952 66.4437 33.7611C64.3942 40.8824 63.9011 41.7064 61.5183 41.9911C60.0619 42.1651 58.8744 41.9401 58.8793 41.4911C58.8843 41.0421 61.358 32.1247 64.3766 21.6747C67.3952 11.2247 69.8662 2.56216 69.8677 2.42466C69.8687 2.28716 68.6328 2.14304 67.1203 2.10438C64.6835 2.04208 64.5981 1.93622 66.3703 1.17466C68.8728 0.0993146 75.8704 -0.0848354 75.8702 0.924665C75.8701 1.33716 74.7518 5.27466 73.3852 9.67466C72.0185 14.0747 70.8936 18.0351 70.8853 18.4756C70.8773 18.9161 72.3753 18.1286 74.2147 16.7256C76.5663 14.9319 78.7991 14.1747 81.7361 14.1747C88.2551 14.1747 88.7728 16.513 84.9565 28.7218C83.2591 34.1522 81.8703 38.9505 81.8703 39.3849C81.8703 41.383 85.0258 39.8374 87.4589 36.6474C88.9386 34.7075 90.3606 33.3316 90.6189 33.5899C91.1918 34.1628 87.0339 40.2068 84.907 41.8929C82.6671 43.6685 77.9219 43.4726 77.1934 41.5743ZM131.838 41.6354C130.784 40.3657 131.048 38.5704 133.346 31.3854C136.932 20.1722 137.439 17.1439 135.889 16.1865C131.597 13.5335 124.979 21.2489 121.229 33.2775C118.575 41.7905 118.33 42.1747 115.556 42.1747C113.267 42.1747 112.79 41.8257 113.292 40.5172C115.02 36.0144 118.87 20.9755 118.87 18.7289C118.87 16.7099 118.375 16.1747 116.505 16.1747C111.29 16.1747 105.621 24.0775 102.339 35.9247C100.738 41.7006 100.393 42.1747 97.7924 42.1747H94.9781L96.4994 36.9247C97.8718 32.1881 101.118 21.3048 102.444 16.9955C102.825 15.7546 102.23 15.2063 100.165 14.8953C98.628 14.6638 99.7891 14.4069 102.745 14.3245L108.12 14.1747L107.501 17.2737L106.881 20.3728L110.301 17.3695C116.426 11.9921 123.478 11.9635 124.548 17.3116L125.143 20.2877L127.785 17.7564C131.498 14.1994 135.85 12.8361 139.302 14.1486C141.842 15.1144 142.033 15.5493 141.618 19.4378C141.37 21.7681 140.13 26.9413 138.861 30.9337C137.593 34.9262 136.817 38.4548 137.137 38.775C138.266 39.9036 141.566 38.1122 142.879 35.6581C143.61 34.2922 144.582 33.1747 145.039 33.1747C146.777 33.1747 145.736 35.2315 142.025 39.1326C137.91 43.4588 134.123 44.3891 131.838 41.6354ZM151.537 42.508C150.31 41.2808 150.872 37.7445 153.882 27.7619C155.526 22.3098 156.87 17.2772 156.87 16.5783C156.87 15.8794 155.633 15.1201 154.12 14.8909C152.608 14.6618 153.988 14.4069 157.188 14.3245C162.293 14.193 162.943 14.3889 162.495 15.9247C159.027 27.8244 155.87 39.0941 155.87 39.5739C155.87 41.112 158.59 39.8757 161.698 36.9247C164.175 34.5729 164.816 34.2668 164.018 35.8168C161.453 40.7994 153.885 44.8564 151.537 42.508ZM202.87 41.1747C198.315 36.6197 201.346 25.633 209.13 18.4869C214.896 13.1922 220.36 11.8263 222.955 15.0307C224.997 17.5526 225.87 17.7455 225.87 15.6747C225.87 14.7414 226.815 14.1747 228.37 14.1747C229.745 14.1747 230.87 14.67 230.87 15.2755C230.87 15.8809 229.495 21.0968 227.815 26.8663C223.95 40.1338 224.213 42.0355 229.178 36.7293C231.209 34.5593 232.87 33.3029 232.87 33.9372C232.87 34.5715 231.108 36.943 228.954 39.2071C225.86 42.4596 224.443 43.2556 222.204 42.9992C219.943 42.7403 219.306 42.1105 219.05 39.883L218.729 37.0912L215.265 40.133C211.087 43.8016 205.931 44.2349 202.87 41.1747ZM216.427 37.683C219.839 34.066 223.87 24.8769 223.87 20.719C223.87 16.4333 222.836 15.1747 219.314 15.1747C214.966 15.1747 211.581 19.4869 208.286 29.2249C205.524 37.3889 205.419 38.3231 207.07 39.9747C209.3 42.2047 213.023 41.2931 216.427 37.683ZM275.37 41.12C270.774 38.9451 266.795 38.6502 265.087 40.358C264.436 41.0089 263.669 41.3066 263.382 41.0196C263.095 40.7326 268.037 35.8545 274.365 30.1793C280.693 24.5041 285.87 19.7064 285.87 19.5177C285.87 19.3291 282.486 19.1747 278.349 19.1747C271.296 19.1747 270.756 19.3306 269.688 21.6747C269.062 23.0497 268.164 24.1747 267.693 24.1747C267.222 24.1747 267.977 21.9247 269.37 19.1747L271.904 14.1747L282.637 14.2086L293.37 14.2425L282.91 24.0743C273.023 33.3668 272.584 33.9465 274.91 34.6418C276.263 35.0463 279.031 36.6817 281.062 38.276C286.276 42.3707 288.147 42.1642 287.288 37.5884C286.659 34.2373 286.771 34.0242 288.983 34.3384C292.183 34.793 292.561 37.8105 289.786 40.7638C286.979 43.7517 281.232 43.8938 275.37 41.12ZM298.87 41.1747C294.315 36.6196 297.346 25.633 305.13 18.4868C310.896 13.1922 316.36 11.8263 318.955 15.0307C320.997 17.5525 321.87 17.7454 321.87 15.6747C321.87 14.7413 322.815 14.1747 324.37 14.1747C325.745 14.1747 326.87 14.5604 326.87 15.0318C326.87 15.5032 325.491 20.6992 323.806 26.5785C319.916 40.1485 320.168 42.0451 325.15 36.6747C327.191 34.4747 328.863 33.1829 328.865 33.8041C328.868 34.4253 327.044 36.8152 324.812 39.1149C321.697 42.3251 320.129 43.2241 318.062 42.9855C315.953 42.7419 315.301 42.0706 315.05 39.8829L314.729 37.0912L311.265 40.1329C307.087 43.8016 301.93 44.2349 298.87 41.1747ZM311.693 38.1985C317.734 32.157 321.834 19.0493 318.538 16.3136C315.522 13.8108 311.587 15.3497 308.256 20.3352C304.158 26.4663 301.069 37.5046 302.851 39.6511C304.833 42.04 308.444 41.4468 311.693 38.1985ZM352.5 41.6611C350.909 40.071 351.404 37.396 355.458 25.6747C356.219 23.4747 356.848 20.2122 356.856 18.4247C356.877 13.7384 353.656 14.1187 348.386 19.4247C344.307 23.5321 342.679 27.0746 339.887 37.9247C338.973 41.4774 338.389 42.1747 336.332 42.1747C334.978 42.1747 333.87 41.7551 333.87 41.2423C333.87 40.7295 335.445 34.7857 337.37 28.0338C339.295 21.2819 340.87 15.6564 340.87 15.5326C340.87 15.4088 339.633 15.12 338.12 14.8909C336.608 14.6618 337.789 14.4069 340.745 14.3245L346.12 14.1747L345.48 17.3765L344.84 20.5783L347.605 17.9401C351.103 14.6029 355.308 12.9954 358.466 13.7881C362.922 14.9065 363.163 17.2369 359.881 27.4825C358.225 32.652 356.87 37.6555 356.87 38.6014C356.87 41.4667 360.16 39.9711 362.787 35.9116C364.117 33.8569 365.388 32.3587 365.611 32.5823C366.416 33.3869 362.854 39.0421 360.255 41.0864C357.115 43.5565 354.583 43.7441 352.5 41.6611ZM371.845 40.4247C366.322 33.4246 374.808 17.3708 385.768 14.0872C390.14 12.7772 393.824 14.0723 393.938 16.9599C393.99 18.2877 394.251 18.1669 395.091 16.4247C395.772 15.0122 397.075 14.1747 398.59 14.1747C400.592 14.1747 400.89 14.5357 400.335 16.2845C396.764 27.5369 394.049 38.7538 394.732 39.4367C395.195 39.899 396.99 38.6636 398.722 36.6912C400.453 34.7188 401.87 33.6237 401.87 34.2575C401.87 34.8914 400.089 37.1908 397.913 39.3674C393.117 44.1627 389.669 44.3157 388.877 39.7683C388.411 37.0965 388.255 37.001 386.943 38.5843C382.717 43.6843 375.146 44.6072 371.845 40.4247ZM385.923 37.2398C390.207 32.7369 393.141 25.0257 392.684 19.4757C392.402 16.0617 392.063 15.6445 389.352 15.3786C387.084 15.1561 385.632 15.8142 383.516 18.0227C378.941 22.7982 374.177 38.1476 376.537 40.508C378.367 42.338 382.414 40.929 385.923 37.2398ZM237.87 41.4595C237.87 40.9931 239.445 35.1407 241.37 28.4543C243.295 21.7678 244.87 16.0744 244.87 15.8023C244.87 15.5302 243.633 15.12 242.12 14.8909C240.608 14.6618 241.926 14.4069 245.051 14.3245L250.731 14.1747L249.87 17.1747C249.397 18.8247 249.169 20.1747 249.363 20.1747C249.558 20.1747 251.043 18.8477 252.665 17.2259C257.91 11.9812 264.028 12.0501 264.671 17.3611C265.022 20.2624 262.611 22.673 260.261 21.7712C259.046 21.3049 258.78 20.3776 259.223 18.1593C259.552 16.5178 259.418 15.1747 258.927 15.1747C254.645 15.1747 248.876 23.1749 245.587 33.6747C243.365 40.7694 242.786 41.7105 240.476 41.9911C239.043 42.1651 237.87 41.9259 237.87 41.4595ZM160.259 5.74479C159.263 3.15012 160.659 1.00563 163.116 1.35454C164.769 1.58923 165.37 2.34193 165.37 4.17466C165.37 6.00738 164.769 6.7601 163.116 6.99479C161.764 7.18682 160.62 6.68659 160.259 5.74479Z" fill="white"/>
<path d="M16.0556 14H34L32.9444 16H15L16.0556 14Z" fill="white"/>
<path d="M185.056 14H203L201.944 16H184L185.056 14Z" fill="white"/>
</svg>
