<svg width="215" height="218" viewBox="0 0 215 218" fill="none" xmlns="http://www.w3.org/2000/svg">
<path d="M75.9496 213.881C79.2219 214.819 85.0719 216.193 88.9496 216.936C98.9253 218.847 121.673 218.076 131.531 215.494C181.201 202.483 214.5 159.673 214.5 108.828C214.5 80.1849 204.158 54.2745 184.063 32.5693C178.593 26.6605 178.402 26.5561 171.064 25.4648C156.413 23.2856 146.037 27.6289 132.515 41.6018C123.525 50.8914 112.898 70.0161 105.864 89.5654L102 100.303L85.8725 100.315C72.7675 100.325 69.5116 100.609 68.5 101.828C67.5172 103.012 67.5128 103.638 68.4794 104.803C69.4409 105.961 72.9883 106.337 85.0103 106.553L100.317 106.828L97.0236 116.328C89.5305 137.941 84.2658 149.312 75.8727 162.009C66.4934 176.198 54.5082 186.306 45.1987 187.879C41.4662 188.509 41.018 188.285 35.8231 183.184C11.9534 159.748 0.659566 125.555 5.97147 92.8049C12.166 54.6132 38.6096 22.6575 74.0475 10.5386C86.4659 6.29185 95.9058 5.02778 110.95 5.59717C127.075 6.20746 137.329 8.70049 151.191 15.3804C157.282 18.3157 160.615 19.3227 164.191 19.3086L169 19.2896L164 16.1381C155.482 10.7694 142.842 5.30441 132.706 2.60844C124.291 0.370383 120.938 0.023396 107.5 0.000525994C96.5113 -0.018172 89.8796 0.460333 84.7145 1.6446C44.2678 10.9183 13.2366 41.1451 2.39781 81.8276C0.289522 89.7409 0 93.0011 0 108.828C0 124.427 0.304642 127.961 2.28433 135.328C7.83932 155.998 17.2088 172.844 30.2514 185.612L35.1387 190.397L46.5694 190.612C57.4887 190.818 58.2909 190.69 64.5001 187.741C75.6292 182.457 86.3385 170.996 96.3595 153.647C101.403 144.915 110.227 124.801 113.937 113.578L116.664 105.328H143.46C166.058 105.328 170.45 105.093 171.5 103.828C172.498 102.625 172.473 102 171.372 100.674C170.134 99.1817 167.482 99.0851 144.18 99.6839L118.359 100.347L119.042 98.0875C126.285 74.1274 139.054 50.3555 150.714 39.1212C156.732 33.3236 165.499 28.3276 169.654 28.3276C171.163 28.3276 174.326 30.7748 179.023 35.5776C223.283 80.8284 217.615 154.889 167 192.667C151.915 203.926 133.933 210.795 116 212.148C96.2949 213.636 79.7442 210.587 62.667 202.326C55.2136 198.721 51.1728 197.338 48.167 197.364L44.0001 197.4L47.0001 199.884C51.1315 203.306 68.7244 211.812 75.9496 213.881Z" fill="white"/>
<rect x="67" y="99" width="105.5" height="8" rx="4" fill="white"/>
</svg>
